<svg width="487" height="307" viewBox="0 0 487 307" fill="none" xmlns="http://www.w3.org/2000/svg">
<rect x="40.458" y="38" width="446.051" height="269" rx="38" fill="url(#paint0_linear_106_58)"/>
<rect x="422.788" y="74" width="63.7216" height="64" fill="#3F3F3F"/>
<rect width="422.788" height="269" rx="38" fill="url(#paint1_linear_106_58)"/>
<path d="M42.443 50.392C39.2883 50.392 36.8803 49.5147 35.219 47.76C33.5763 46.0053 32.755 43.5133 32.755 40.284C32.755 38.6787 33.007 37.2507 33.511 36C34.015 34.7307 34.7056 33.6667 35.583 32.808C36.4603 31.9307 37.5056 31.268 38.719 30.82C39.9323 30.372 41.2483 30.148 42.667 30.148C43.4883 30.148 44.235 30.2133 44.907 30.344C45.579 30.456 46.167 30.596 46.671 30.764C47.175 30.9133 47.595 31.072 47.931 31.24C48.267 31.408 48.5096 31.5387 48.659 31.632L47.399 35.16C46.8016 34.8427 46.1016 34.572 45.299 34.348C44.515 34.124 43.619 34.012 42.611 34.012C41.939 34.012 41.2763 34.124 40.623 34.348C39.9883 34.572 39.419 34.936 38.915 35.44C38.4296 35.9253 38.0376 36.56 37.739 37.344C37.4403 38.128 37.291 39.08 37.291 40.2C37.291 41.096 37.3843 41.936 37.571 42.72C37.7763 43.4853 38.0936 44.148 38.523 44.708C38.971 45.268 39.5496 45.716 40.259 46.052C40.9683 46.3693 41.827 46.528 42.835 46.528C43.4696 46.528 44.039 46.4907 44.543 46.416C45.047 46.3413 45.495 46.2573 45.887 46.164C46.279 46.052 46.6243 45.9307 46.923 45.8C47.2216 45.6693 47.4923 45.548 47.735 45.436L48.939 48.936C48.323 49.3093 47.455 49.6453 46.335 49.944C45.215 50.2427 43.9176 50.392 42.443 50.392ZM60.3472 38.968C59.9739 38.8747 59.5352 38.7813 59.0312 38.688C58.5272 38.576 57.9859 38.52 57.4072 38.52C57.1459 38.52 56.8286 38.548 56.4552 38.604C56.1006 38.6413 55.8299 38.688 55.6432 38.744V50H51.4712V36.056C52.2179 35.7947 53.0952 35.552 54.1032 35.328C55.1299 35.0853 56.2686 34.964 57.5192 34.964C57.7432 34.964 58.0139 34.9827 58.3312 35.02C58.6486 35.0387 58.9659 35.076 59.2832 35.132C59.6006 35.1693 59.9179 35.2253 60.2352 35.3C60.5526 35.356 60.8232 35.4307 61.0472 35.524L60.3472 38.968ZM62.3103 42.748C62.3103 41.4413 62.5063 40.3027 62.8983 39.332C63.309 38.3427 63.841 37.5213 64.4943 36.868C65.1476 36.2147 65.8943 35.72 66.7343 35.384C67.593 35.048 68.4703 34.88 69.3663 34.88C71.457 34.88 73.109 35.524 74.3223 36.812C75.5356 38.0813 76.1423 39.9573 76.1423 42.44C76.1423 42.6827 76.133 42.9533 76.1143 43.252C76.0956 43.532 76.077 43.784 76.0583 44.008H66.5943C66.6876 44.8667 67.089 45.548 67.7983 46.052C68.5076 46.556 69.4596 46.808 70.6543 46.808C71.4196 46.808 72.1663 46.7427 72.8943 46.612C73.641 46.4627 74.2476 46.2853 74.7143 46.08L75.2743 49.468C75.0503 49.58 74.7516 49.692 74.3783 49.804C74.005 49.916 73.585 50.0093 73.1183 50.084C72.6703 50.1773 72.185 50.252 71.6623 50.308C71.1396 50.364 70.617 50.392 70.0943 50.392C68.769 50.392 67.6116 50.196 66.6223 49.804C65.6516 49.412 64.8396 48.88 64.1863 48.208C63.5516 47.5173 63.0756 46.7053 62.7583 45.772C62.4596 44.8387 62.3103 43.8307 62.3103 42.748ZM72.1103 41.152C72.0916 40.7973 72.0263 40.452 71.9143 40.116C71.821 39.78 71.6623 39.4813 71.4383 39.22C71.233 38.9587 70.9623 38.744 70.6263 38.576C70.309 38.408 69.9076 38.324 69.4223 38.324C68.9556 38.324 68.5543 38.408 68.2183 38.576C67.8823 38.7253 67.6023 38.9307 67.3783 39.192C67.1543 39.4533 66.977 39.7613 66.8463 40.116C66.7343 40.452 66.6503 40.7973 66.5943 41.152H72.1103ZM82.9179 42.524C82.9179 43.812 83.2072 44.848 83.7859 45.632C84.3645 46.416 85.2232 46.808 86.3619 46.808C86.7352 46.808 87.0805 46.7987 87.3979 46.78C87.7152 46.7427 87.9765 46.7053 88.1819 46.668V39.08C87.9205 38.912 87.5752 38.772 87.1459 38.66C86.7352 38.548 86.3152 38.492 85.8859 38.492C83.9072 38.492 82.9179 39.836 82.9179 42.524ZM92.3539 49.524C91.9805 49.636 91.5512 49.748 91.0659 49.86C90.5805 49.9533 90.0672 50.0373 89.5259 50.112C89.0032 50.1867 88.4619 50.2427 87.9019 50.28C87.3605 50.336 86.8379 50.364 86.3339 50.364C85.1205 50.364 84.0379 50.1867 83.0859 49.832C82.1339 49.4773 81.3312 48.9733 80.6779 48.32C80.0245 47.648 79.5205 46.8453 79.1659 45.912C78.8299 44.96 78.6619 43.896 78.6619 42.72C78.6619 41.5253 78.8112 40.452 79.1099 39.5C79.4085 38.5293 79.8379 37.708 80.3979 37.036C80.9579 36.364 81.6392 35.8507 82.4419 35.496C83.2632 35.1413 84.1965 34.964 85.2419 34.964C85.8205 34.964 86.3339 35.02 86.7819 35.132C87.2485 35.244 87.7152 35.4027 88.1819 35.608V28.944L92.3539 28.272V49.524ZM100.432 50H96.2603V35.272H100.432V50ZM100.824 31.016C100.824 31.7813 100.572 32.388 100.068 32.836C99.583 33.2653 99.0043 33.48 98.3323 33.48C97.6603 33.48 97.0723 33.2653 96.5683 32.836C96.083 32.388 95.8403 31.7813 95.8403 31.016C95.8403 30.2507 96.083 29.6533 96.5683 29.224C97.0723 28.776 97.6603 28.552 98.3323 28.552C99.0043 28.552 99.583 28.776 100.068 29.224C100.572 29.6533 100.824 30.2507 100.824 31.016ZM104.214 31.604L108.386 30.932V35.272H113.398V38.744H108.386V43.924C108.386 44.8013 108.535 45.5013 108.834 46.024C109.151 46.5467 109.777 46.808 110.71 46.808C111.158 46.808 111.615 46.7707 112.082 46.696C112.567 46.6027 113.006 46.4813 113.398 46.332L113.986 49.58C113.482 49.7853 112.922 49.9627 112.306 50.112C111.69 50.2613 110.934 50.336 110.038 50.336C108.899 50.336 107.957 50.1867 107.21 49.888C106.463 49.5707 105.866 49.1413 105.418 48.6C104.97 48.04 104.653 47.368 104.466 46.584C104.298 45.8 104.214 44.932 104.214 43.98V31.604ZM132.65 50.392C129.495 50.392 127.087 49.5147 125.426 47.76C123.783 46.0053 122.962 43.5133 122.962 40.284C122.962 38.6787 123.214 37.2507 123.718 36C124.222 34.7307 124.913 33.6667 125.79 32.808C126.667 31.9307 127.713 31.268 128.926 30.82C130.139 30.372 131.455 30.148 132.874 30.148C133.695 30.148 134.442 30.2133 135.114 30.344C135.786 30.456 136.374 30.596 136.878 30.764C137.382 30.9133 137.802 31.072 138.138 31.24C138.474 31.408 138.717 31.5387 138.866 31.632L137.606 35.16C137.009 34.8427 136.309 34.572 135.506 34.348C134.722 34.124 133.826 34.012 132.818 34.012C132.146 34.012 131.483 34.124 130.83 34.348C130.195 34.572 129.626 34.936 129.122 35.44C128.637 35.9253 128.245 36.56 127.946 37.344C127.647 38.128 127.498 39.08 127.498 40.2C127.498 41.096 127.591 41.936 127.778 42.72C127.983 43.4853 128.301 44.148 128.73 44.708C129.178 45.268 129.757 45.716 130.466 46.052C131.175 46.3693 132.034 46.528 133.042 46.528C133.677 46.528 134.246 46.4907 134.75 46.416C135.254 46.3413 135.702 46.2573 136.094 46.164C136.486 46.052 136.831 45.9307 137.13 45.8C137.429 45.6693 137.699 45.548 137.942 45.436L139.146 48.936C138.53 49.3093 137.662 49.6453 136.542 49.944C135.422 50.2427 134.125 50.392 132.65 50.392ZM147.58 47.088C147.99 47.088 148.382 47.0787 148.756 47.06C149.129 47.0413 149.428 47.0133 149.652 46.976V43.812C149.484 43.7747 149.232 43.7373 148.896 43.7C148.56 43.6627 148.252 43.644 147.972 43.644C147.58 43.644 147.206 43.672 146.852 43.728C146.516 43.7653 146.217 43.8493 145.956 43.98C145.694 44.1107 145.489 44.288 145.34 44.512C145.19 44.736 145.116 45.016 145.116 45.352C145.116 46.0053 145.33 46.4627 145.76 46.724C146.208 46.9667 146.814 47.088 147.58 47.088ZM147.244 34.88C148.476 34.88 149.502 35.02 150.324 35.3C151.145 35.58 151.798 35.9813 152.284 36.504C152.788 37.0267 153.142 37.6613 153.348 38.408C153.553 39.1547 153.656 39.9853 153.656 40.9V49.58C153.058 49.7107 152.228 49.86 151.164 50.028C150.1 50.2147 148.812 50.308 147.3 50.308C146.348 50.308 145.48 50.224 144.696 50.056C143.93 49.888 143.268 49.6173 142.708 49.244C142.148 48.852 141.718 48.348 141.42 47.732C141.121 47.116 140.972 46.36 140.972 45.464C140.972 44.6053 141.14 43.8773 141.476 43.28C141.83 42.6827 142.297 42.2067 142.876 41.852C143.454 41.4973 144.117 41.2453 144.864 41.096C145.61 40.928 146.385 40.844 147.188 40.844C147.729 40.844 148.205 40.872 148.616 40.928C149.045 40.9653 149.39 41.0213 149.652 41.096V40.704C149.652 39.9947 149.437 39.4253 149.008 38.996C148.578 38.5667 147.832 38.352 146.768 38.352C146.058 38.352 145.358 38.408 144.668 38.52C143.977 38.6133 143.38 38.7533 142.876 38.94L142.344 35.58C142.586 35.5053 142.885 35.4307 143.24 35.356C143.613 35.2627 144.014 35.188 144.444 35.132C144.873 35.0573 145.321 35.0013 145.788 34.964C146.273 34.908 146.758 34.88 147.244 34.88ZM166.304 38.968C165.931 38.8747 165.492 38.7813 164.988 38.688C164.484 38.576 163.943 38.52 163.364 38.52C163.103 38.52 162.786 38.548 162.412 38.604C162.058 38.6413 161.787 38.688 161.6 38.744V50H157.428V36.056C158.175 35.7947 159.052 35.552 160.06 35.328C161.087 35.0853 162.226 34.964 163.476 34.964C163.7 34.964 163.971 34.9827 164.288 35.02C164.606 35.0387 164.923 35.076 165.24 35.132C165.558 35.1693 165.875 35.2253 166.192 35.3C166.51 35.356 166.78 35.4307 167.004 35.524L166.304 38.968ZM172.523 42.524C172.523 43.812 172.813 44.848 173.391 45.632C173.97 46.416 174.829 46.808 175.967 46.808C176.341 46.808 176.686 46.7987 177.003 46.78C177.321 46.7427 177.582 46.7053 177.787 46.668V39.08C177.526 38.912 177.181 38.772 176.751 38.66C176.341 38.548 175.921 38.492 175.491 38.492C173.513 38.492 172.523 39.836 172.523 42.524ZM181.959 49.524C181.586 49.636 181.157 49.748 180.671 49.86C180.186 49.9533 179.673 50.0373 179.131 50.112C178.609 50.1867 178.067 50.2427 177.507 50.28C176.966 50.336 176.443 50.364 175.939 50.364C174.726 50.364 173.643 50.1867 172.691 49.832C171.739 49.4773 170.937 48.9733 170.283 48.32C169.63 47.648 169.126 46.8453 168.771 45.912C168.435 44.96 168.267 43.896 168.267 42.72C168.267 41.5253 168.417 40.452 168.715 39.5C169.014 38.5293 169.443 37.708 170.003 37.036C170.563 36.364 171.245 35.8507 172.047 35.496C172.869 35.1413 173.802 34.964 174.847 34.964C175.426 34.964 175.939 35.02 176.387 35.132C176.854 35.244 177.321 35.4027 177.787 35.608V28.944L181.959 28.272V49.524Z" fill="url(#paint2_linear_106_58)"/>
<path d="M33.315 164.628C33.8563 164.404 34.4163 164.152 34.995 163.872C35.5923 163.573 36.171 163.256 36.731 162.92C37.291 162.565 37.823 162.201 38.327 161.828C38.8496 161.436 39.3163 161.025 39.727 160.596H42.639V180H38.467V166.028C37.907 166.401 37.2816 166.747 36.591 167.064C35.9003 167.363 35.2283 167.624 34.575 167.848L33.315 164.628ZM61.157 165.692C61.157 166.401 61.017 167.083 60.737 167.736C60.457 168.389 60.093 169.024 59.645 169.64C59.197 170.237 58.693 170.816 58.133 171.376C57.573 171.936 57.0224 172.468 56.481 172.972C56.201 173.233 55.893 173.532 55.557 173.868C55.2397 174.185 54.9317 174.512 54.633 174.848C54.3344 175.184 54.0637 175.501 53.821 175.8C53.597 176.08 53.457 176.313 53.401 176.5H61.745V180H48.809C48.7717 179.795 48.753 179.533 48.753 179.216C48.753 178.899 48.753 178.675 48.753 178.544C48.753 177.648 48.893 176.827 49.173 176.08C49.4717 175.333 49.8544 174.643 50.321 174.008C50.7877 173.355 51.3104 172.748 51.889 172.188C52.4864 171.628 53.0744 171.068 53.653 170.508C54.101 170.079 54.521 169.677 54.913 169.304C55.305 168.912 55.6504 168.539 55.949 168.184C56.2477 167.811 56.481 167.447 56.649 167.092C56.817 166.719 56.901 166.345 56.901 165.972C56.901 165.151 56.6677 164.572 56.201 164.236C55.7344 163.9 55.1557 163.732 54.465 163.732C53.961 163.732 53.485 163.816 53.037 163.984C52.6077 164.133 52.2064 164.32 51.833 164.544C51.4784 164.749 51.1704 164.964 50.909 165.188C50.6477 165.393 50.4517 165.561 50.321 165.692L48.249 162.78C49.0704 162.015 50.0224 161.389 51.105 160.904C52.2064 160.4 53.3824 160.148 54.633 160.148C55.7717 160.148 56.7517 160.279 57.573 160.54C58.3944 160.801 59.0664 161.175 59.589 161.66C60.1304 162.127 60.5224 162.705 60.765 163.396C61.0264 164.068 61.157 164.833 61.157 165.692ZM69.5671 180.42C69.0631 180.42 68.5311 180.383 67.9711 180.308C67.4111 180.252 66.8698 180.168 66.3471 180.056C65.8244 179.944 65.3484 179.823 64.9191 179.692C64.4898 179.561 64.1538 179.44 63.9111 179.328L64.7231 175.856C65.2084 176.061 65.8244 176.285 66.5711 176.528C67.3364 176.752 68.2791 176.864 69.3991 176.864C70.6871 176.864 71.6298 176.621 72.2271 176.136C72.8244 175.651 73.1231 174.997 73.1231 174.176C73.1231 173.672 73.0111 173.252 72.7871 172.916C72.5818 172.561 72.2924 172.281 71.9191 172.076C71.5458 171.852 71.0978 171.703 70.5751 171.628C70.0711 171.535 69.5298 171.488 68.9511 171.488H67.3271V168.128H69.1751C69.5858 168.128 69.9778 168.091 70.3511 168.016C70.7431 167.941 71.0884 167.82 71.3871 167.652C71.6858 167.465 71.9191 167.223 72.0871 166.924C72.2738 166.607 72.3671 166.215 72.3671 165.748C72.3671 165.393 72.2924 165.085 72.1431 164.824C71.9938 164.563 71.7978 164.348 71.5551 164.18C71.3311 164.012 71.0604 163.891 70.7431 163.816C70.4444 163.723 70.1364 163.676 69.8191 163.676C69.0164 163.676 68.2698 163.797 67.5791 164.04C66.9071 164.283 66.2911 164.581 65.7311 164.936L64.2471 161.884C64.5458 161.697 64.8911 161.501 65.2831 161.296C65.6938 161.091 66.1418 160.904 66.6271 160.736C67.1124 160.568 67.6258 160.428 68.1671 160.316C68.7271 160.204 69.3151 160.148 69.9311 160.148C71.0698 160.148 72.0498 160.288 72.8711 160.568C73.7111 160.829 74.4018 161.212 74.9431 161.716C75.4844 162.201 75.8858 162.78 76.1471 163.452C76.4084 164.105 76.5391 164.824 76.5391 165.608C76.5391 166.373 76.3244 167.12 75.8951 167.848C75.4658 168.557 74.8871 169.099 74.1591 169.472C75.1671 169.883 75.9418 170.499 76.4831 171.32C77.0431 172.123 77.3231 173.093 77.3231 174.232C77.3231 175.128 77.1738 175.959 76.8751 176.724C76.5764 177.471 76.1098 178.124 75.4751 178.684C74.8404 179.225 74.0284 179.655 73.0391 179.972C72.0684 180.271 70.9111 180.42 69.5671 180.42ZM88.0292 165.692C87.3012 166.644 86.5265 167.68 85.7052 168.8C84.8838 169.92 84.1932 171.068 83.6332 172.244H88.0292V165.692ZM92.1172 160.596V172.244H94.1892V175.66H92.1172V180H88.0292V175.66H79.6572V172.608C80.0678 171.787 80.5812 170.863 81.1972 169.836C81.8132 168.791 82.4945 167.727 83.2412 166.644C84.0065 165.543 84.8092 164.469 85.6492 163.424C86.4892 162.379 87.3292 161.436 88.1692 160.596H92.1172Z" fill="#494949"/>
<path d="M329.514 207.256C329.514 210.523 328.889 213.033 327.638 214.788C326.406 216.524 324.698 217.392 322.514 217.392C320.33 217.392 318.613 216.524 317.362 214.788C316.13 213.033 315.514 210.523 315.514 207.256C315.514 205.632 315.673 204.195 315.99 202.944C316.326 201.693 316.802 200.639 317.418 199.78C318.034 198.921 318.771 198.268 319.63 197.82C320.489 197.372 321.45 197.148 322.514 197.148C324.698 197.148 326.406 198.025 327.638 199.78C328.889 201.516 329.514 204.008 329.514 207.256ZM325.258 207.256C325.258 206.285 325.211 205.408 325.118 204.624C325.025 203.821 324.875 203.131 324.67 202.552C324.465 201.973 324.185 201.525 323.83 201.208C323.475 200.891 323.037 200.732 322.514 200.732C321.991 200.732 321.553 200.891 321.198 201.208C320.862 201.525 320.582 201.973 320.358 202.552C320.153 203.131 320.003 203.821 319.91 204.624C319.817 205.408 319.77 206.285 319.77 207.256C319.77 208.227 319.817 209.113 319.91 209.916C320.003 210.719 320.153 211.409 320.358 211.988C320.582 212.567 320.862 213.015 321.198 213.332C321.553 213.649 321.991 213.808 322.514 213.808C323.037 213.808 323.475 213.649 323.83 213.332C324.185 213.015 324.465 212.567 324.67 211.988C324.875 211.409 325.025 210.719 325.118 209.916C325.211 209.113 325.258 208.227 325.258 207.256ZM332.436 201.628C332.977 201.404 333.537 201.152 334.116 200.872C334.713 200.573 335.292 200.256 335.852 199.92C336.412 199.565 336.944 199.201 337.448 198.828C337.971 198.436 338.437 198.025 338.848 197.596H341.76V217H337.588V203.028C337.028 203.401 336.403 203.747 335.712 204.064C335.021 204.363 334.349 204.624 333.696 204.848L332.436 201.628ZM349.974 222.18H345.69L355.098 195.076H359.326L349.974 222.18ZM372.501 202.692C372.501 203.401 372.361 204.083 372.081 204.736C371.801 205.389 371.437 206.024 370.989 206.64C370.541 207.237 370.037 207.816 369.477 208.376C368.917 208.936 368.366 209.468 367.825 209.972C367.545 210.233 367.237 210.532 366.901 210.868C366.583 211.185 366.275 211.512 365.977 211.848C365.678 212.184 365.407 212.501 365.165 212.8C364.941 213.08 364.801 213.313 364.745 213.5H373.089V217H360.153C360.115 216.795 360.097 216.533 360.097 216.216C360.097 215.899 360.097 215.675 360.097 215.544C360.097 214.648 360.237 213.827 360.517 213.08C360.815 212.333 361.198 211.643 361.665 211.008C362.131 210.355 362.654 209.748 363.233 209.188C363.83 208.628 364.418 208.068 364.997 207.508C365.445 207.079 365.865 206.677 366.257 206.304C366.649 205.912 366.994 205.539 367.293 205.184C367.591 204.811 367.825 204.447 367.993 204.092C368.161 203.719 368.245 203.345 368.245 202.972C368.245 202.151 368.011 201.572 367.545 201.236C367.078 200.9 366.499 200.732 365.809 200.732C365.305 200.732 364.829 200.816 364.381 200.984C363.951 201.133 363.55 201.32 363.177 201.544C362.822 201.749 362.514 201.964 362.253 202.188C361.991 202.393 361.795 202.561 361.665 202.692L359.593 199.78C360.414 199.015 361.366 198.389 362.449 197.904C363.55 197.4 364.726 197.148 365.977 197.148C367.115 197.148 368.095 197.279 368.917 197.54C369.738 197.801 370.41 198.175 370.933 198.66C371.474 199.127 371.866 199.705 372.109 200.396C372.37 201.068 372.501 201.833 372.501 202.692ZM389.479 207.256C389.479 210.523 388.854 213.033 387.603 214.788C386.371 216.524 384.663 217.392 382.479 217.392C380.295 217.392 378.578 216.524 377.327 214.788C376.095 213.033 375.479 210.523 375.479 207.256C375.479 205.632 375.638 204.195 375.955 202.944C376.291 201.693 376.767 200.639 377.383 199.78C377.999 198.921 378.736 198.268 379.595 197.82C380.454 197.372 381.415 197.148 382.479 197.148C384.663 197.148 386.371 198.025 387.603 199.78C388.854 201.516 389.479 204.008 389.479 207.256ZM385.223 207.256C385.223 206.285 385.176 205.408 385.083 204.624C384.99 203.821 384.84 203.131 384.635 202.552C384.43 201.973 384.15 201.525 383.795 201.208C383.44 200.891 383.002 200.732 382.479 200.732C381.956 200.732 381.518 200.891 381.163 201.208C380.827 201.525 380.547 201.973 380.323 202.552C380.118 203.131 379.968 203.821 379.875 204.624C379.782 205.408 379.735 206.285 379.735 207.256C379.735 208.227 379.782 209.113 379.875 209.916C379.968 210.719 380.118 211.409 380.323 211.988C380.547 212.567 380.827 213.015 381.163 213.332C381.518 213.649 381.956 213.808 382.479 213.808C383.002 213.808 383.44 213.649 383.795 213.332C384.15 213.015 384.43 212.567 384.635 211.988C384.84 211.409 384.99 210.719 385.083 209.916C385.176 209.113 385.223 208.227 385.223 207.256Z" fill="#858585"/>
<path d="M46.0809 210.04C46.0809 212.373 45.6342 214.167 44.7409 215.42C43.8609 216.66 42.6409 217.28 41.0809 217.28C39.5209 217.28 38.2942 216.66 37.4009 215.42C36.5209 214.167 36.0809 212.373 36.0809 210.04C36.0809 208.88 36.1942 207.853 36.4209 206.96C36.6609 206.067 37.0009 205.313 37.4409 204.7C37.8809 204.087 38.4075 203.62 39.0209 203.3C39.6342 202.98 40.3209 202.82 41.0809 202.82C42.6409 202.82 43.8609 203.447 44.7409 204.7C45.6342 205.94 46.0809 207.72 46.0809 210.04ZM43.0409 210.04C43.0409 209.347 43.0075 208.72 42.9409 208.16C42.8742 207.587 42.7675 207.093 42.6209 206.68C42.4742 206.267 42.2742 205.947 42.0209 205.72C41.7675 205.493 41.4542 205.38 41.0809 205.38C40.7075 205.38 40.3942 205.493 40.1409 205.72C39.9009 205.947 39.7009 206.267 39.5409 206.68C39.3942 207.093 39.2875 207.587 39.2209 208.16C39.1542 208.72 39.1209 209.347 39.1209 210.04C39.1209 210.733 39.1542 211.367 39.2209 211.94C39.2875 212.513 39.3942 213.007 39.5409 213.42C39.7009 213.833 39.9009 214.153 40.1409 214.38C40.3942 214.607 40.7075 214.72 41.0809 214.72C41.4542 214.72 41.7675 214.607 42.0209 214.38C42.2742 214.153 42.4742 213.833 42.6209 213.42C42.7675 213.007 42.8742 212.513 42.9409 211.94C43.0075 211.367 43.0409 210.733 43.0409 210.04ZM48.1681 206.02C48.5547 205.86 48.9547 205.68 49.3681 205.48C49.7947 205.267 50.2081 205.04 50.6081 204.8C51.0081 204.547 51.3881 204.287 51.7481 204.02C52.1214 203.74 52.4547 203.447 52.7481 203.14H54.8281V217H51.8481V207.02C51.4481 207.287 51.0014 207.533 50.5081 207.76C50.0147 207.973 49.5347 208.16 49.0681 208.32L48.1681 206.02ZM68.0553 206.78C68.0553 207.287 67.9553 207.773 67.7553 208.24C67.5553 208.707 67.2953 209.16 66.9753 209.6C66.6553 210.027 66.2953 210.44 65.8953 210.84C65.4953 211.24 65.1019 211.62 64.7153 211.98C64.5153 212.167 64.2953 212.38 64.0553 212.62C63.8286 212.847 63.6086 213.08 63.3953 213.32C63.1819 213.56 62.9886 213.787 62.8153 214C62.6553 214.2 62.5553 214.367 62.5153 214.5H68.4753V217H59.2353C59.2086 216.853 59.1953 216.667 59.1953 216.44C59.1953 216.213 59.1953 216.053 59.1953 215.96C59.1953 215.32 59.2953 214.733 59.4953 214.2C59.7086 213.667 59.9819 213.173 60.3153 212.72C60.6486 212.253 61.0219 211.82 61.4353 211.42C61.8619 211.02 62.2819 210.62 62.6953 210.22C63.0153 209.913 63.3153 209.627 63.5953 209.36C63.8753 209.08 64.1219 208.813 64.3353 208.56C64.5486 208.293 64.7153 208.033 64.8353 207.78C64.9553 207.513 65.0153 207.247 65.0153 206.98C65.0153 206.393 64.8486 205.98 64.5153 205.74C64.1819 205.5 63.7686 205.38 63.2753 205.38C62.9153 205.38 62.5753 205.44 62.2553 205.56C61.9486 205.667 61.6619 205.8 61.3953 205.96C61.1419 206.107 60.9219 206.26 60.7353 206.42C60.5486 206.567 60.4086 206.687 60.3153 206.78L58.8353 204.7C59.4219 204.153 60.1019 203.707 60.8753 203.36C61.6619 203 62.5019 202.82 63.3953 202.82C64.2086 202.82 64.9086 202.913 65.4953 203.1C66.0819 203.287 66.5619 203.553 66.9353 203.9C67.3219 204.233 67.6019 204.647 67.7753 205.14C67.9619 205.62 68.0553 206.167 68.0553 206.78ZM74.0624 217.3C73.7024 217.3 73.3224 217.273 72.9224 217.22C72.5224 217.18 72.1358 217.12 71.7624 217.04C71.3891 216.96 71.0491 216.873 70.7424 216.78C70.4358 216.687 70.1958 216.6 70.0224 216.52L70.6024 214.04C70.9491 214.187 71.3891 214.347 71.9224 214.52C72.4691 214.68 73.1424 214.76 73.9424 214.76C74.8624 214.76 75.5358 214.587 75.9624 214.24C76.3891 213.893 76.6024 213.427 76.6024 212.84C76.6024 212.48 76.5224 212.18 76.3624 211.94C76.2158 211.687 76.0091 211.487 75.7424 211.34C75.4758 211.18 75.1558 211.073 74.7824 211.02C74.4224 210.953 74.0358 210.92 73.6224 210.92H72.4624V208.52H73.7824C74.0758 208.52 74.3558 208.493 74.6224 208.44C74.9024 208.387 75.1491 208.3 75.3624 208.18C75.5758 208.047 75.7424 207.873 75.8624 207.66C75.9958 207.433 76.0624 207.153 76.0624 206.82C76.0624 206.567 76.0091 206.347 75.9024 206.16C75.7958 205.973 75.6558 205.82 75.4824 205.7C75.3224 205.58 75.1291 205.493 74.9024 205.44C74.6891 205.373 74.4691 205.34 74.2424 205.34C73.6691 205.34 73.1358 205.427 72.6424 205.6C72.1624 205.773 71.7224 205.987 71.3224 206.24L70.2624 204.06C70.4758 203.927 70.7224 203.787 71.0024 203.64C71.2958 203.493 71.6158 203.36 71.9624 203.24C72.3091 203.12 72.6758 203.02 73.0624 202.94C73.4624 202.86 73.8824 202.82 74.3224 202.82C75.1358 202.82 75.8358 202.92 76.4224 203.12C77.0224 203.307 77.5158 203.58 77.9024 203.94C78.2891 204.287 78.5758 204.7 78.7624 205.18C78.9491 205.647 79.0424 206.16 79.0424 206.72C79.0424 207.267 78.8891 207.8 78.5824 208.32C78.2758 208.827 77.8624 209.213 77.3424 209.48C78.0624 209.773 78.6158 210.213 79.0024 210.8C79.4024 211.373 79.6024 212.067 79.6024 212.88C79.6024 213.52 79.4958 214.113 79.2824 214.66C79.0691 215.193 78.7358 215.66 78.2824 216.06C77.8291 216.447 77.2491 216.753 76.5424 216.98C75.8491 217.193 75.0224 217.3 74.0624 217.3Z" fill="#858585"/>
<path d="M276.964 205C276.691 204.42 276.421 203.817 276.154 203.19C275.887 202.563 275.634 201.943 275.394 201.33C275.154 200.717 274.931 200.13 274.724 199.57C274.524 199.01 274.351 198.51 274.204 198.07H275.924C276.057 198.47 276.201 198.903 276.354 199.37C276.514 199.83 276.674 200.29 276.834 200.75C277.001 201.21 277.161 201.65 277.314 202.07C277.467 202.49 277.611 202.853 277.744 203.16C277.871 202.853 278.011 202.49 278.164 202.07C278.324 201.65 278.484 201.21 278.644 200.75C278.811 200.29 278.971 199.83 279.124 199.37C279.284 198.903 279.431 198.47 279.564 198.07H281.224C281.071 198.51 280.894 199.01 280.694 199.57C280.494 200.13 280.274 200.717 280.034 201.33C279.794 201.943 279.541 202.563 279.274 203.19C279.007 203.817 278.737 204.42 278.464 205H276.964ZM286.107 205C286.033 204.76 285.95 204.513 285.857 204.26C285.77 204.007 285.683 203.753 285.597 203.5H282.897C282.81 203.753 282.72 204.007 282.627 204.26C282.54 204.513 282.46 204.76 282.387 205H280.767C281.027 204.253 281.273 203.563 281.507 202.93C281.74 202.297 281.967 201.7 282.187 201.14C282.413 200.58 282.633 200.05 282.847 199.55C283.067 199.043 283.293 198.55 283.527 198.07H285.017C285.243 198.55 285.467 199.043 285.687 199.55C285.907 200.05 286.127 200.58 286.347 201.14C286.573 201.7 286.803 202.297 287.037 202.93C287.27 203.563 287.517 204.253 287.777 205H286.107ZM284.237 199.64C284.203 199.74 284.153 199.877 284.087 200.05C284.02 200.223 283.943 200.423 283.857 200.65C283.77 200.877 283.673 201.127 283.567 201.4C283.467 201.673 283.363 201.96 283.257 202.26H285.227C285.12 201.96 285.017 201.673 284.917 201.4C284.817 201.127 284.72 200.877 284.627 200.65C284.54 200.423 284.463 200.223 284.397 200.05C284.33 199.877 284.277 199.74 284.237 199.64ZM293.304 203.66V205H288.674V198.07H290.234V203.66H293.304ZM294.308 198.07H295.868V205H294.308V198.07ZM299.032 203.73C299.106 203.737 299.189 203.743 299.282 203.75C299.382 203.75 299.499 203.75 299.632 203.75C300.412 203.75 300.989 203.553 301.362 203.16C301.742 202.767 301.932 202.223 301.932 201.53C301.932 200.803 301.752 200.253 301.392 199.88C301.032 199.507 300.462 199.32 299.682 199.32C299.576 199.32 299.466 199.323 299.352 199.33C299.239 199.33 299.132 199.337 299.032 199.35V203.73ZM303.542 201.53C303.542 202.13 303.449 202.653 303.262 203.1C303.076 203.547 302.809 203.917 302.462 204.21C302.122 204.503 301.706 204.723 301.212 204.87C300.719 205.017 300.166 205.09 299.552 205.09C299.272 205.09 298.946 205.077 298.572 205.05C298.199 205.03 297.832 204.983 297.472 204.91V198.16C297.832 198.093 298.206 198.05 298.592 198.03C298.986 198.003 299.322 197.99 299.602 197.99C300.196 197.99 300.732 198.057 301.212 198.19C301.699 198.323 302.116 198.533 302.462 198.82C302.809 199.107 303.076 199.473 303.262 199.92C303.449 200.367 303.542 200.903 303.542 201.53ZM280.044 209.07V210.4H277.954V216H276.394V210.4H274.304V209.07H280.044ZM285.227 209.07H286.787V216H285.227V213.06H282.607V216H281.047V209.07H282.607V211.72H285.227V209.07ZM290.42 208.99C291.46 208.99 292.257 209.177 292.81 209.55C293.364 209.917 293.64 210.49 293.64 211.27C293.64 211.757 293.527 212.153 293.3 212.46C293.08 212.76 292.76 212.997 292.34 213.17C292.48 213.343 292.627 213.543 292.78 213.77C292.934 213.99 293.084 214.223 293.23 214.47C293.384 214.71 293.53 214.963 293.67 215.23C293.81 215.49 293.94 215.747 294.06 216H292.31C292.184 215.773 292.054 215.543 291.92 215.31C291.794 215.077 291.66 214.85 291.52 214.63C291.387 214.41 291.254 214.203 291.12 214.01C290.987 213.81 290.854 213.63 290.72 213.47H289.95V216H288.39V209.17C288.73 209.103 289.08 209.057 289.44 209.03C289.807 209.003 290.134 208.99 290.42 208.99ZM290.51 210.32C290.397 210.32 290.294 210.323 290.2 210.33C290.114 210.337 290.03 210.343 289.95 210.35V212.23H290.39C290.977 212.23 291.397 212.157 291.65 212.01C291.904 211.863 292.03 211.613 292.03 211.26C292.03 210.92 291.9 210.68 291.64 210.54C291.387 210.393 291.01 210.32 290.51 210.32ZM297.692 216.14C297.205 216.14 296.785 216.073 296.432 215.94C296.079 215.8 295.785 215.61 295.552 215.37C295.325 215.123 295.155 214.833 295.042 214.5C294.935 214.16 294.882 213.787 294.882 213.38V209.07H296.442V213.25C296.442 213.53 296.472 213.77 296.532 213.97C296.599 214.163 296.685 214.323 296.792 214.45C296.905 214.57 297.039 214.657 297.192 214.71C297.352 214.763 297.525 214.79 297.712 214.79C298.092 214.79 298.399 214.673 298.632 214.44C298.872 214.207 298.992 213.81 298.992 213.25V209.07H300.552V213.38C300.552 213.787 300.495 214.16 300.382 214.5C300.269 214.84 300.095 215.133 299.862 215.38C299.629 215.62 299.332 215.807 298.972 215.94C298.612 216.073 298.185 216.14 297.692 216.14Z" fill="#858585"/>
<path d="M133.449 164.628C133.99 164.404 134.55 164.152 135.129 163.872C135.726 163.573 136.305 163.256 136.865 162.92C137.425 162.565 137.957 162.201 138.461 161.828C138.983 161.436 139.45 161.025 139.861 160.596H142.773V180H138.601V166.028C138.041 166.401 137.415 166.747 136.725 167.064C136.034 167.363 135.362 167.624 134.709 167.848L133.449 164.628ZM161.291 165.692C161.291 166.401 161.151 167.083 160.871 167.736C160.591 168.389 160.227 169.024 159.779 169.64C159.331 170.237 158.827 170.816 158.267 171.376C157.707 171.936 157.156 172.468 156.615 172.972C156.335 173.233 156.027 173.532 155.691 173.868C155.373 174.185 155.065 174.512 154.767 174.848C154.468 175.184 154.197 175.501 153.955 175.8C153.731 176.08 153.591 176.313 153.535 176.5H161.879V180H148.943C148.905 179.795 148.887 179.533 148.887 179.216C148.887 178.899 148.887 178.675 148.887 178.544C148.887 177.648 149.027 176.827 149.307 176.08C149.605 175.333 149.988 174.643 150.455 174.008C150.921 173.355 151.444 172.748 152.023 172.188C152.62 171.628 153.208 171.068 153.787 170.508C154.235 170.079 154.655 169.677 155.047 169.304C155.439 168.912 155.784 168.539 156.083 168.184C156.381 167.811 156.615 167.447 156.783 167.092C156.951 166.719 157.035 166.345 157.035 165.972C157.035 165.151 156.801 164.572 156.335 164.236C155.868 163.9 155.289 163.732 154.599 163.732C154.095 163.732 153.619 163.816 153.171 163.984C152.741 164.133 152.34 164.32 151.967 164.544C151.612 164.749 151.304 164.964 151.043 165.188C150.781 165.393 150.585 165.561 150.455 165.692L148.383 162.78C149.204 162.015 150.156 161.389 151.239 160.904C152.34 160.4 153.516 160.148 154.767 160.148C155.905 160.148 156.885 160.279 157.707 160.54C158.528 160.801 159.2 161.175 159.723 161.66C160.264 162.127 160.656 162.705 160.899 163.396C161.16 164.068 161.291 164.833 161.291 165.692ZM169.701 180.42C169.197 180.42 168.665 180.383 168.105 180.308C167.545 180.252 167.004 180.168 166.481 180.056C165.958 179.944 165.482 179.823 165.053 179.692C164.624 179.561 164.288 179.44 164.045 179.328L164.857 175.856C165.342 176.061 165.958 176.285 166.705 176.528C167.47 176.752 168.413 176.864 169.533 176.864C170.821 176.864 171.764 176.621 172.361 176.136C172.958 175.651 173.257 174.997 173.257 174.176C173.257 173.672 173.145 173.252 172.921 172.916C172.716 172.561 172.426 172.281 172.053 172.076C171.68 171.852 171.232 171.703 170.709 171.628C170.205 171.535 169.664 171.488 169.085 171.488H167.461V168.128H169.309C169.72 168.128 170.112 168.091 170.485 168.016C170.877 167.941 171.222 167.82 171.521 167.652C171.82 167.465 172.053 167.223 172.221 166.924C172.408 166.607 172.501 166.215 172.501 165.748C172.501 165.393 172.426 165.085 172.277 164.824C172.128 164.563 171.932 164.348 171.689 164.18C171.465 164.012 171.194 163.891 170.877 163.816C170.578 163.723 170.27 163.676 169.953 163.676C169.15 163.676 168.404 163.797 167.713 164.04C167.041 164.283 166.425 164.581 165.865 164.936L164.381 161.884C164.68 161.697 165.025 161.501 165.417 161.296C165.828 161.091 166.276 160.904 166.761 160.736C167.246 160.568 167.76 160.428 168.301 160.316C168.861 160.204 169.449 160.148 170.065 160.148C171.204 160.148 172.184 160.288 173.005 160.568C173.845 160.829 174.536 161.212 175.077 161.716C175.618 162.201 176.02 162.78 176.281 163.452C176.542 164.105 176.673 164.824 176.673 165.608C176.673 166.373 176.458 167.12 176.029 167.848C175.6 168.557 175.021 169.099 174.293 169.472C175.301 169.883 176.076 170.499 176.617 171.32C177.177 172.123 177.457 173.093 177.457 174.232C177.457 175.128 177.308 175.959 177.009 176.724C176.71 177.471 176.244 178.124 175.609 178.684C174.974 179.225 174.162 179.655 173.173 179.972C172.202 180.271 171.045 180.42 169.701 180.42ZM188.163 165.692C187.435 166.644 186.66 167.68 185.839 168.8C185.018 169.92 184.327 171.068 183.767 172.244H188.163V165.692ZM192.251 160.596V172.244H194.323V175.66H192.251V180H188.163V175.66H179.791V172.608C180.202 171.787 180.715 170.863 181.331 169.836C181.947 168.791 182.628 167.727 183.375 166.644C184.14 165.543 184.943 164.469 185.783 163.424C186.623 162.379 187.463 161.436 188.303 160.596H192.251Z" fill="#494949"/>
<path d="M230.548 164.628C231.09 164.404 231.65 164.152 232.228 163.872C232.826 163.573 233.404 163.256 233.964 162.92C234.524 162.565 235.056 162.201 235.56 161.828C236.083 161.436 236.55 161.025 236.96 160.596H239.872V180H235.7V166.028C235.14 166.401 234.515 166.747 233.824 167.064C233.134 167.363 232.462 167.624 231.808 167.848L230.548 164.628ZM258.39 165.692C258.39 166.401 258.25 167.083 257.97 167.736C257.69 168.389 257.326 169.024 256.878 169.64C256.43 170.237 255.926 170.816 255.366 171.376C254.806 171.936 254.256 172.468 253.714 172.972C253.434 173.233 253.126 173.532 252.79 173.868C252.473 174.185 252.165 174.512 251.866 174.848C251.568 175.184 251.297 175.501 251.054 175.8C250.83 176.08 250.69 176.313 250.634 176.5H258.978V180H246.042C246.005 179.795 245.986 179.533 245.986 179.216C245.986 178.899 245.986 178.675 245.986 178.544C245.986 177.648 246.126 176.827 246.406 176.08C246.705 175.333 247.088 174.643 247.554 174.008C248.021 173.355 248.544 172.748 249.122 172.188C249.72 171.628 250.308 171.068 250.886 170.508C251.334 170.079 251.754 169.677 252.146 169.304C252.538 168.912 252.884 168.539 253.182 168.184C253.481 167.811 253.714 167.447 253.882 167.092C254.05 166.719 254.134 166.345 254.134 165.972C254.134 165.151 253.901 164.572 253.434 164.236C252.968 163.9 252.389 163.732 251.698 163.732C251.194 163.732 250.718 163.816 250.27 163.984C249.841 164.133 249.44 164.32 249.066 164.544C248.712 164.749 248.404 164.964 248.142 165.188C247.881 165.393 247.685 165.561 247.554 165.692L245.482 162.78C246.304 162.015 247.256 161.389 248.338 160.904C249.44 160.4 250.616 160.148 251.866 160.148C253.005 160.148 253.985 160.279 254.806 160.54C255.628 160.801 256.3 161.175 256.822 161.66C257.364 162.127 257.756 162.705 257.998 163.396C258.26 164.068 258.39 164.833 258.39 165.692ZM266.801 180.42C266.297 180.42 265.765 180.383 265.205 180.308C264.645 180.252 264.103 180.168 263.581 180.056C263.058 179.944 262.582 179.823 262.153 179.692C261.723 179.561 261.387 179.44 261.145 179.328L261.957 175.856C262.442 176.061 263.058 176.285 263.805 176.528C264.57 176.752 265.513 176.864 266.633 176.864C267.921 176.864 268.863 176.621 269.461 176.136C270.058 175.651 270.357 174.997 270.357 174.176C270.357 173.672 270.245 173.252 270.021 172.916C269.815 172.561 269.526 172.281 269.153 172.076C268.779 171.852 268.331 171.703 267.809 171.628C267.305 171.535 266.763 171.488 266.185 171.488H264.561V168.128H266.409C266.819 168.128 267.211 168.091 267.585 168.016C267.977 167.941 268.322 167.82 268.621 167.652C268.919 167.465 269.153 167.223 269.321 166.924C269.507 166.607 269.601 166.215 269.601 165.748C269.601 165.393 269.526 165.085 269.377 164.824C269.227 164.563 269.031 164.348 268.789 164.18C268.565 164.012 268.294 163.891 267.977 163.816C267.678 163.723 267.37 163.676 267.053 163.676C266.25 163.676 265.503 163.797 264.813 164.04C264.141 164.283 263.525 164.581 262.965 164.936L261.481 161.884C261.779 161.697 262.125 161.501 262.517 161.296C262.927 161.091 263.375 160.904 263.861 160.736C264.346 160.568 264.859 160.428 265.401 160.316C265.961 160.204 266.549 160.148 267.165 160.148C268.303 160.148 269.283 160.288 270.105 160.568C270.945 160.829 271.635 161.212 272.177 161.716C272.718 162.201 273.119 162.78 273.381 163.452C273.642 164.105 273.773 164.824 273.773 165.608C273.773 166.373 273.558 167.12 273.129 167.848C272.699 168.557 272.121 169.099 271.393 169.472C272.401 169.883 273.175 170.499 273.717 171.32C274.277 172.123 274.557 173.093 274.557 174.232C274.557 175.128 274.407 175.959 274.109 176.724C273.81 177.471 273.343 178.124 272.709 178.684C272.074 179.225 271.262 179.655 270.273 179.972C269.302 180.271 268.145 180.42 266.801 180.42ZM285.263 165.692C284.535 166.644 283.76 167.68 282.939 168.8C282.117 169.92 281.427 171.068 280.867 172.244H285.263V165.692ZM289.351 160.596V172.244H291.423V175.66H289.351V180H285.263V175.66H276.891V172.608C277.301 171.787 277.815 170.863 278.431 169.836C279.047 168.791 279.728 167.727 280.475 166.644C281.24 165.543 282.043 164.469 282.883 163.424C283.723 162.379 284.563 161.436 285.403 160.596H289.351Z" fill="#494949"/>
<path d="M327.648 164.628C328.189 164.404 328.749 164.152 329.328 163.872C329.925 163.573 330.504 163.256 331.064 162.92C331.624 162.565 332.156 162.201 332.66 161.828C333.183 161.436 333.649 161.025 334.06 160.596H336.972V180H332.8V166.028C332.24 166.401 331.615 166.747 330.924 167.064C330.233 167.363 329.561 167.624 328.908 167.848L327.648 164.628ZM355.49 165.692C355.49 166.401 355.35 167.083 355.07 167.736C354.79 168.389 354.426 169.024 353.978 169.64C353.53 170.237 353.026 170.816 352.466 171.376C351.906 171.936 351.355 172.468 350.814 172.972C350.534 173.233 350.226 173.532 349.89 173.868C349.573 174.185 349.265 174.512 348.966 174.848C348.667 175.184 348.397 175.501 348.154 175.8C347.93 176.08 347.79 176.313 347.734 176.5H356.078V180H343.142C343.105 179.795 343.086 179.533 343.086 179.216C343.086 178.899 343.086 178.675 343.086 178.544C343.086 177.648 343.226 176.827 343.506 176.08C343.805 175.333 344.187 174.643 344.654 174.008C345.121 173.355 345.643 172.748 346.222 172.188C346.819 171.628 347.407 171.068 347.986 170.508C348.434 170.079 348.854 169.677 349.246 169.304C349.638 168.912 349.983 168.539 350.282 168.184C350.581 167.811 350.814 167.447 350.982 167.092C351.15 166.719 351.234 166.345 351.234 165.972C351.234 165.151 351.001 164.572 350.534 164.236C350.067 163.9 349.489 163.732 348.798 163.732C348.294 163.732 347.818 163.816 347.37 163.984C346.941 164.133 346.539 164.32 346.166 164.544C345.811 164.749 345.503 164.964 345.242 165.188C344.981 165.393 344.785 165.561 344.654 165.692L342.582 162.78C343.403 162.015 344.355 161.389 345.438 160.904C346.539 160.4 347.715 160.148 348.966 160.148C350.105 160.148 351.085 160.279 351.906 160.54C352.727 160.801 353.399 161.175 353.922 161.66C354.463 162.127 354.855 162.705 355.098 163.396C355.359 164.068 355.49 164.833 355.49 165.692ZM363.9 180.42C363.396 180.42 362.864 180.383 362.304 180.308C361.744 180.252 361.203 180.168 360.68 180.056C360.157 179.944 359.681 179.823 359.252 179.692C358.823 179.561 358.487 179.44 358.244 179.328L359.056 175.856C359.541 176.061 360.157 176.285 360.904 176.528C361.669 176.752 362.612 176.864 363.732 176.864C365.02 176.864 365.963 176.621 366.56 176.136C367.157 175.651 367.456 174.997 367.456 174.176C367.456 173.672 367.344 173.252 367.12 172.916C366.915 172.561 366.625 172.281 366.252 172.076C365.879 171.852 365.431 171.703 364.908 171.628C364.404 171.535 363.863 171.488 363.284 171.488H361.66V168.128H363.508C363.919 168.128 364.311 168.091 364.684 168.016C365.076 167.941 365.421 167.82 365.72 167.652C366.019 167.465 366.252 167.223 366.42 166.924C366.607 166.607 366.7 166.215 366.7 165.748C366.7 165.393 366.625 165.085 366.476 164.824C366.327 164.563 366.131 164.348 365.888 164.18C365.664 164.012 365.393 163.891 365.076 163.816C364.777 163.723 364.469 163.676 364.152 163.676C363.349 163.676 362.603 163.797 361.912 164.04C361.24 164.283 360.624 164.581 360.064 164.936L358.58 161.884C358.879 161.697 359.224 161.501 359.616 161.296C360.027 161.091 360.475 160.904 360.96 160.736C361.445 160.568 361.959 160.428 362.5 160.316C363.06 160.204 363.648 160.148 364.264 160.148C365.403 160.148 366.383 160.288 367.204 160.568C368.044 160.829 368.735 161.212 369.276 161.716C369.817 162.201 370.219 162.78 370.48 163.452C370.741 164.105 370.872 164.824 370.872 165.608C370.872 166.373 370.657 167.12 370.228 167.848C369.799 168.557 369.22 169.099 368.492 169.472C369.5 169.883 370.275 170.499 370.816 171.32C371.376 172.123 371.656 173.093 371.656 174.232C371.656 175.128 371.507 175.959 371.208 176.724C370.909 177.471 370.443 178.124 369.808 178.684C369.173 179.225 368.361 179.655 367.372 179.972C366.401 180.271 365.244 180.42 363.9 180.42ZM382.362 165.692C381.634 166.644 380.86 167.68 380.038 168.8C379.217 169.92 378.526 171.068 377.966 172.244H382.362V165.692ZM386.45 160.596V172.244H388.522V175.66H386.45V180H382.362V175.66H373.99V172.608C374.401 171.787 374.914 170.863 375.53 169.836C376.146 168.791 376.828 167.727 377.574 166.644C378.34 165.543 379.142 164.469 379.982 163.424C380.822 162.379 381.662 161.436 382.502 160.596H386.45Z" fill="#494949"/>
<path d="M323.106 46.668C323.722 46.668 324.226 46.6213 324.618 46.528C325.028 46.416 325.355 46.276 325.598 46.108C325.84 45.9213 326.008 45.7067 326.102 45.464C326.195 45.2213 326.242 44.9507 326.242 44.652C326.242 44.0173 325.943 43.4947 325.346 43.084C324.748 42.6547 323.722 42.1973 322.266 41.712C321.631 41.488 320.996 41.236 320.362 40.956C319.727 40.6573 319.158 40.2933 318.654 39.864C318.15 39.416 317.739 38.884 317.422 38.268C317.104 37.6333 316.946 36.868 316.946 35.972C316.946 35.076 317.114 34.2733 317.45 33.564C317.786 32.836 318.262 32.22 318.878 31.716C319.494 31.212 320.24 30.8293 321.118 30.568C321.995 30.288 322.984 30.148 324.086 30.148C325.392 30.148 326.522 30.288 327.474 30.568C328.426 30.848 329.21 31.156 329.826 31.492L328.566 34.936C328.024 34.656 327.418 34.4133 326.746 34.208C326.092 33.984 325.299 33.872 324.366 33.872C323.32 33.872 322.564 34.0213 322.098 34.32C321.65 34.6 321.426 35.0387 321.426 35.636C321.426 35.9907 321.51 36.2893 321.678 36.532C321.846 36.7747 322.079 36.9987 322.378 37.204C322.695 37.3907 323.05 37.568 323.442 37.736C323.852 37.8853 324.3 38.044 324.786 38.212C325.794 38.5853 326.671 38.9587 327.418 39.332C328.164 39.6867 328.78 40.1067 329.266 40.592C329.77 41.0773 330.143 41.6467 330.386 42.3C330.628 42.9533 330.75 43.7467 330.75 44.68C330.75 46.4907 330.115 47.9 328.846 48.908C327.576 49.8973 325.663 50.392 323.106 50.392C322.247 50.392 321.472 50.336 320.782 50.224C320.091 50.1307 319.475 50.0093 318.934 49.86C318.411 49.7107 317.954 49.552 317.562 49.384C317.188 49.216 316.871 49.0573 316.61 48.908L317.842 45.436C318.42 45.7533 319.13 46.0427 319.97 46.304C320.828 46.5467 321.874 46.668 323.106 46.668ZM340.579 50.252C339.515 50.252 338.451 50.2147 337.387 50.14C336.341 50.084 335.249 49.9347 334.111 49.692V30.876C335.007 30.708 335.987 30.5867 337.051 30.512C338.115 30.4187 339.104 30.372 340.019 30.372C341.251 30.372 342.38 30.4653 343.407 30.652C344.452 30.82 345.348 31.1187 346.095 31.548C346.841 31.9773 347.42 32.5467 347.831 33.256C348.26 33.9467 348.475 34.8053 348.475 35.832C348.475 37.3813 347.728 38.604 346.235 39.5C347.467 39.9667 348.307 40.6013 348.755 41.404C349.203 42.2067 349.427 43.112 349.427 44.12C349.427 46.1547 348.68 47.6853 347.187 48.712C345.712 49.7387 343.509 50.252 340.579 50.252ZM338.367 41.544V46.556C338.684 46.5933 339.029 46.6213 339.403 46.64C339.776 46.6587 340.187 46.668 340.635 46.668C341.941 46.668 342.996 46.4813 343.799 46.108C344.601 45.7347 345.003 45.044 345.003 44.036C345.003 43.14 344.667 42.5053 343.995 42.132C343.323 41.74 342.361 41.544 341.111 41.544H338.367ZM338.367 38.212H340.495C341.839 38.212 342.8 38.044 343.379 37.708C343.957 37.3533 344.247 36.7933 344.247 36.028C344.247 35.244 343.948 34.6933 343.351 34.376C342.753 34.0587 341.876 33.9 340.719 33.9C340.345 33.9 339.944 33.9093 339.515 33.928C339.085 33.928 338.703 33.9467 338.367 33.984V38.212ZM352.923 30.596H357.291V50H352.923V30.596Z" fill="#494949"/>
<rect x="40.458" y="82" width="65.7445" height="38" rx="8" fill="url(#paint3_linear_106_58)"/>
<line x1="51.0728" y1="82" x2="51.0728" y2="120" stroke="#C3956B"/>
<line x1="91.5308" y1="82" x2="91.5308" y2="120" stroke="#C4956B"/>
<path d="M72.3188 82V120" stroke="#C4956B"/>
<path d="M106.203 95L40.4581 95" stroke="#C4956B"/>
<path d="M106.203 108L40.4581 108" stroke="#C4956B"/>
<mask id="path-19-inside-1_106_58" fill="white">
<path fill-rule="evenodd" clip-rule="evenodd" d="M79.7662 101.5C80.4977 100.176 80.9164 98.6393 80.9164 97C80.9164 92.0294 77.0672 88 72.319 88C67.5708 88 63.7217 92.0294 63.7217 97C63.7217 98.6393 64.1403 100.176 64.8719 101.5C64.1403 102.824 63.7217 104.361 63.7217 106C63.7217 110.971 67.5708 115 72.319 115C77.0672 115 80.9164 110.971 80.9164 106C80.9164 104.361 80.4977 102.824 79.7662 101.5Z"/>
</mask>
<path fill-rule="evenodd" clip-rule="evenodd" d="M79.7662 101.5C80.4977 100.176 80.9164 98.6393 80.9164 97C80.9164 92.0294 77.0672 88 72.319 88C67.5708 88 63.7217 92.0294 63.7217 97C63.7217 98.6393 64.1403 100.176 64.8719 101.5C64.1403 102.824 63.7217 104.361 63.7217 106C63.7217 110.971 67.5708 115 72.319 115C77.0672 115 80.9164 110.971 80.9164 106C80.9164 104.361 80.4977 102.824 79.7662 101.5Z" fill="url(#paint4_linear_106_58)"/>
<path d="M79.7662 101.5L78.891 101.016L78.6237 101.5L78.891 101.984L79.7662 101.5ZM64.8719 101.5L65.7471 101.984L66.0144 101.5L65.7471 101.016L64.8719 101.5ZM79.9164 97C79.9164 98.4676 79.5419 99.8384 78.891 101.016L80.6415 101.984C81.4536 100.514 81.9164 98.811 81.9164 97H79.9164ZM72.319 89C76.4723 89 79.9164 92.5381 79.9164 97H81.9164C81.9164 91.5208 77.6622 87 72.319 87V89ZM64.7217 97C64.7217 92.5381 68.1658 89 72.319 89V87C66.9759 87 62.7217 91.5208 62.7217 97H64.7217ZM65.7471 101.016C65.0962 99.8384 64.7217 98.4676 64.7217 97H62.7217C62.7217 98.811 63.1845 100.514 63.9966 101.984L65.7471 101.016ZM64.7217 106C64.7217 104.532 65.0962 103.162 65.7471 101.984L63.9966 101.016C63.1845 102.486 62.7217 104.189 62.7217 106H64.7217ZM72.319 114C68.1658 114 64.7217 110.462 64.7217 106H62.7217C62.7217 111.479 66.9759 116 72.319 116V114ZM79.9164 106C79.9164 110.462 76.4723 114 72.319 114V116C77.6622 116 81.9164 111.479 81.9164 106H79.9164ZM78.891 101.984C79.5419 103.162 79.9164 104.532 79.9164 106H81.9164C81.9164 104.189 81.4536 102.486 80.6415 101.016L78.891 101.984Z" fill="#C3956B" mask="url(#path-19-inside-1_106_58)"/>
<defs>
<linearGradient id="paint0_linear_106_58" x1="263.484" y1="38" x2="263.484" y2="307" gradientUnits="userSpaceOnUse">
<stop offset="0.996318" stop-color="#CDF19F"/>
<stop offset="0.996418" stop-color="#A9C28A" stop-opacity="0.332748"/>
<stop offset="0.9999" stop-color="#CB7373" stop-opacity="0.321468"/>
<stop offset="1" stop-color="#77B02F" stop-opacity="0"/>
</linearGradient>
<linearGradient id="paint1_linear_106_58" x1="211.394" y1="0" x2="211.394" y2="269" gradientUnits="userSpaceOnUse">
<stop stop-color="#CDF19F"/>
<stop offset="0.996418" stop-color="#A9C28A" stop-opacity="0.332748"/>
<stop offset="0.9999" stop-color="#CB7373" stop-opacity="0.321468"/>
<stop offset="1" stop-color="#738E4F" stop-opacity="0"/>
</linearGradient>
<linearGradient id="paint2_linear_106_58" x1="113.788" y1="24" x2="113.788" y2="61" gradientUnits="userSpaceOnUse">
<stop stop-color="#493C3C"/>
<stop offset="0.0001" stop-color="#493C3C" stop-opacity="0.866686"/>
<stop offset="0.729167" stop-color="#493C3C" stop-opacity="0.861317"/>
<stop offset="0.921875" stop-color="#493C3C" stop-opacity="0.859375"/>
</linearGradient>
<linearGradient id="paint3_linear_106_58" x1="73.3303" y1="82" x2="73.3303" y2="120" gradientUnits="userSpaceOnUse">
<stop stop-color="#E4AE5C"/>
<stop offset="1" stop-color="#BEAB67" stop-opacity="0.5"/>
<stop offset="1" stop-color="#E08D22" stop-opacity="0.458333"/>
<stop offset="1" stop-color="#F08C17" stop-opacity="0"/>
</linearGradient>
<linearGradient id="paint4_linear_106_58" x1="72.319" y1="88" x2="72.319" y2="115" gradientUnits="userSpaceOnUse">
<stop stop-color="#B8A04E"/>
<stop offset="0.927083" stop-color="#DFC97F" stop-opacity="0.432292"/>
<stop offset="1" stop-color="#E8D490" stop-opacity="0"/>
</linearGradient>
</defs>
</svg>
