<svg width="60" height="60" viewBox="0 0 60 60" fill="none" xmlns="http://www.w3.org/2000/svg">
<rect width="60" height="60" rx="12" fill="#46EA4D"/>
<path d="M13 17C13 14.7909 14.7909 13 17 13H40C42.2091 13 44 14.7909 44 17V22H13V17Z" fill="white"/>
<path d="M13 17C13 14.7909 14.7909 13 17 13H40C42.2091 13 44 14.7909 44 17V22H13V17Z" fill="white"/>
<path d="M13 17C13 14.7909 14.7909 13 17 13H40C42.2091 13 44 14.7909 44 17V22H13V17Z" fill="white"/>
<path d="M13 17C13 14.7909 14.7909 13 17 13H40C42.2091 13 44 14.7909 44 17V22H13V17Z" fill="white"/>
<path d="M13 26H44V41C44 43.2091 42.2091 45 40 45H17C14.7909 45 13 43.2091 13 41V26Z" fill="white"/>
<path d="M13 26H44V41C44 43.2091 42.2091 45 40 45H17C14.7909 45 13 43.2091 13 41V26Z" fill="white"/>
<path d="M13 26H44V41C44 43.2091 42.2091 45 40 45H17C14.7909 45 13 43.2091 13 41V26Z" fill="white"/>
<path d="M13 26H44V41C44 43.2091 42.2091 45 40 45H17C14.7909 45 13 43.2091 13 41V26Z" fill="white"/>
<circle cx="38.5" cy="40.5" r="1.5" fill="#423838"/>
</svg>
